<?xml version="1.0" encoding="iso-8859-1"?>
<!-- Generator: Adobe Illustrator 19.0.0, SVG Export Plug-In . SVG Version: 6.00 Build 0)  -->
<svg version="1.1" id="Capa_1" xmlns="http://www.w3.org/2000/svg" xmlns:xlink="http://www.w3.org/1999/xlink" x="0px" y="0px"
	 viewBox="0 0 512 512" style="enable-background:new 0 0 512 512;" xml:space="preserve">
<g>
	<g>
		<path d="M435.945,0.031H314.961c-12.016,0-23.313,4.681-31.813,13.18l-51.192,51.192c-5.983-2.865-12.578-4.38-19.409-4.38
			C95.348,60.025,0,155.373,0,272.572v102.414c0,19.552,12.539,36.222,29.996,42.414v79.57c0,8.283,6.715,14.998,14.998,14.998
			h59.992c8.283,0,14.998-6.715,14.998-14.998V417.4c12.762-4.526,22.89-14.654,27.417-27.417h77.57
			c41.35,0,74.991-33.641,74.991-74.991c0-43.048,0-133.491,0-167.553c0-6.829-1.516-13.425-4.38-19.409l38.011-38.011h102.352
			c8.283,0,14.998-6.715,14.998-14.998V15.03C450.944,6.747,444.228,0.031,435.945,0.031z M89.989,481.972H59.992V419.98h29.996
			V481.972z M269.966,314.993c0,24.81-20.185,44.994-44.994,44.994h-74.991v-89.989h29.996v14.998
			c0,24.81,20.185,44.994,44.994,44.994c8.283,0,14.998-6.715,14.998-14.998s-6.715-14.998-14.998-14.998
			c-8.27,0-14.998-6.728-14.998-14.998v-14.998h59.992V314.993z M269.966,240.004H134.983c-2.071,0-4.043,0.42-5.838,1.179
			c-5.383,2.277-9.16,7.607-9.16,13.819v119.985c0,8.27-6.728,14.998-14.998,14.998H44.994c-8.27,0-14.998-6.728-14.998-14.998
			V272.572c0-100.658,81.892-182.55,182.551-182.55c4.005,0,7.772,1.56,10.605,4.392l42.421,42.422
			c2.833,2.833,4.393,6.599,4.393,10.606V240.004z M420.947,60.025h-93.566c-3.979,0-7.793,1.58-10.605,4.392l-40.6,40.6
			L254.97,83.811l49.388-49.387c2.794-2.793,6.658-4.395,10.603-4.395h105.987V60.025z"/>
	</g>
</g>
<g>
	<g>
		<path d="M503.427,250.277c-0.096-0.183-0.194-0.363-0.298-0.542l-53.192-92.217c-2.679-4.643-7.631-7.504-12.991-7.504
			c-5.36,0-10.313,2.861-12.991,7.504l-53.192,92.217c-0.104,0.179-0.202,0.359-0.298,0.542
			c-25.912,49.53,10.048,109.71,66.482,109.71C493.303,359.987,529.379,299.884,503.427,250.277z M436.945,329.991
			c-33.746,0-55.319-35.886-40.035-65.555l40.035-69.407l40.035,69.407C492.249,294.075,470.719,329.991,436.945,329.991z"/>
	</g>
</g>
<g>
	<g>
		<path d="M194.976,120.017h-29.996c-8.283,0-14.998,6.715-14.998,14.998s6.715,14.998,14.998,14.998h29.996
			c8.283,0,14.998-6.715,14.998-14.998S203.259,120.017,194.976,120.017z"/>
	</g>
</g>
<g>
	<g>
		<path d="M194.976,180.01h-29.996c-8.283,0-14.998,6.715-14.998,14.998s6.715,14.998,14.998,14.998h29.996
			c8.283,0,14.998-6.715,14.998-14.998S203.259,180.01,194.976,180.01z"/>
	</g>
</g>
<g>
</g>
<g>
</g>
<g>
</g>
<g>
</g>
<g>
</g>
<g>
</g>
<g>
</g>
<g>
</g>
<g>
</g>
<g>
</g>
<g>
</g>
<g>
</g>
<g>
</g>
<g>
</g>
<g>
</g>
</svg>
