<svg id="Capa_1" enable-background="new 0 0 512 512" height="512" viewBox="0 0 512 512" width="512" xmlns="http://www.w3.org/2000/svg"><g><path d="m0 72v183.306c0 38.981 31.713 70.694 70.694 70.694h370.612c38.981 0 70.694-31.713 70.694-70.694v-183.306zm482 30v134h-452v-134zm-450.564 164h321.564v30h-282.306c-18.738 0-34.549-12.734-39.258-30zm409.87 30h-58.306v-30h97.564c-4.709 17.266-20.52 30-39.258 30z"/><path d="m60 132h73v30h-73z"/><path d="m422 176h30v30h-30z"/><path d="m362 176h30v30h-30z"/><path d="m177.5 360h30v80h-30z"/><path d="m104 360.377c0 21.746-8.161 42.486-22.979 58.401l21.957 20.443c20.091-21.574 31.117-49.74 31.022-79.221h-30z"/><path d="m281 360h-30c-.095 29.481 10.931 57.647 31.021 79.222l21.957-20.443c-14.904-16.004-23.073-36.91-22.978-58.779z"/></g></svg>