<svg xmlns="http://www.w3.org/2000/svg" width="512" height="512" viewBox="0 0 512 512">
	<style type="text/css">
		.st0{fill:#000000;}
	</style>
	<path class="st0" d="M445,94C430.11,94 418,81.88 418,67C418,52.11 430.11,40 445,40C459.88,40 472,52.11 472,67C472,81.88 459.88,94 445,94M258,94C243.11,94 231,81.88 231,67C231,52.11 243.11,40 258,40C272.88,40 285,52.11 285,67C285,81.88 272.88,94 258,94M285,445C285,459.88 272.88,472 258,472C243.11,472 231,459.88 231,445C231,430.11 243.11,418 258,418C272.88,418 285,430.11 285,445M67,94C52.11,94 40,81.88 40,67C40,52.11 52.11,40 67,40C81.88,40 94,52.11 94,67C94,81.88 81.88,94 67,94M94,445C94,459.88 81.88,472 67,472C52.11,472 40,459.88 40,445C40,430.11 52.11,418 67,418C81.88,418 94,430.11 94,445M445,0C408.05,0 378,30.05 378,67C378,96.98 397.79,122.42 425,130.94L425,216C425,227.02 416.02,236 405,236L278,236L278,130.94C305.2,122.42 325,96.98 325,67C325,30.05 294.94,0 258,0C221.05,0 191,30.05 191,67C191,96.98 210.79,122.42 238,130.94L238,236L107,236C95.97,236 87,227.02 87,216L87,130.94C114.2,122.42 134,96.98 134,67C134,30.05 103.94,0 67,0C30.05,0 0,30.05 0,67C0,96.98 19.79,122.42 47,130.94L47,216C47,231.35 52.8,245.37 62.32,256C52.8,266.62 47,280.64 47,296L47,381.05C19.79,389.57 0,415.01 0,445C0,481.94 30.05,512 67,512C103.94,512 134,481.94 134,445C134,415.01 114.2,389.57 87,381.05L87,296C87,284.97 95.97,276 107,276L238,276L238,381.05C210.79,389.57 191,415.01 191,445C191,481.94 221.05,512 258,512C294.94,512 325,481.94 325,445C325,415.01 305.2,389.57 278,381.05L278,276L405,276C438.08,276 465,249.08 465,216L465,130.94C492.2,122.42 512,96.98 512,67C512,30.05 481.94,0 445,0"/>
</svg>